<svg width="117" height="117" viewBox="0 0 117 117" fill="none" xmlns="http://www.w3.org/2000/svg">
<circle cx="58.5" cy="58.5" r="57.5" stroke="#2A6BBF" stroke-width="2"/>
<path d="M44.4924 89V82.16C44.4924 73.16 47.0124 67.67 54.3924 59.93C61.9524 51.92 64.1124 47.15 64.1124 41.3C64.1124 35.63 62.1324 34.1 58.9824 34.1C55.8324 34.1 53.8524 35.81 53.8524 40.31V47.06H44.4924V40.94C44.4924 30.86 49.5324 25.1 59.2524 25.1C68.9724 25.1 74.0124 30.86 74.0124 40.94C74.0124 48.41 70.9524 55.07 61.7724 64.79C55.8324 71.09 54.3024 74.24 54.3024 78.65V80H73.1124V89H44.4924Z" fill="#2A6BBF"/>
</svg>
