<svg width="117" height="117" viewBox="0 0 117 117" fill="none" xmlns="http://www.w3.org/2000/svg">
<circle cx="58.5" cy="58.5" r="57.5" stroke="#2A6BBF" stroke-width="2"/>
<path d="M58.7124 89.9C48.9924 89.9 43.9524 84.32 43.9524 74.24V69.11H53.3124V74.69C53.3124 79.19 55.2924 80.9 58.4424 80.9C61.5924 80.9 63.5724 79.37 63.5724 73.79V68.66C63.5724 62.81 61.5924 60.65 57.0924 60.65H53.7624V51.65H57.3624C61.0524 51.65 63.3024 50.03 63.3024 44.99V40.4C63.3024 35.9 61.2324 34.1 58.3524 34.1C55.4724 34.1 53.5824 35.81 53.5824 39.95V44.09H44.2224V40.76C44.2224 30.68 49.2624 25.1 58.7124 25.1C68.1624 25.1 73.2024 30.59 73.2024 40.67V42.92C73.2024 49.67 71.0424 53.81 66.1824 55.61V55.79C71.4924 57.77 73.4724 62.36 73.4724 68.75V74.33C73.4724 84.41 68.4324 89.9 58.7124 89.9Z" fill="#2A6BBF"/>
</svg>
