<svg width="117" height="117" viewBox="0 0 117 117" fill="none" xmlns="http://www.w3.org/2000/svg">
<circle cx="58.5" cy="58.5" r="57.5" stroke="#2A6BBF" stroke-width="2"/>
<path d="M59.1624 89.9C49.4424 89.9 44.4024 84.14 44.4024 74.06V69.11H53.7624V74.78C53.7624 79.28 55.7424 80.9 58.8924 80.9C62.0424 80.9 64.0224 79.28 64.0224 74.78V60.65C64.0224 56.15 62.0424 54.44 58.8924 54.44C55.7424 54.44 53.7624 56.15 53.7624 60.65V61.19H44.4024L46.2024 26H72.3024V35H55.0224L54.2124 50.03H54.3924C56.1924 47.06 58.9824 45.44 62.9424 45.44C70.2324 45.44 73.9224 50.57 73.9224 59.84V74.06C73.9224 84.14 68.8824 89.9 59.1624 89.9Z" fill="#2A6BBF"/>
</svg>
